<svg width="38" height="43" viewBox="0 0 38 43" fill="none" xmlns="http://www.w3.org/2000/svg">
<path fill-rule="evenodd" clip-rule="evenodd" d="M18.8497 0.538147C11.9429 0.538147 6.34374 5.60405 6.34374 11.8532V15.7142C6.34374 15.8085 6.34515 15.9027 6.34761 15.9963H6.24616C2.99179 15.9963 0.353516 18.5421 0.353516 21.6824V36.8521C0.353516 39.9924 2.99179 42.5381 6.24616 42.5381H31.4607C34.7152 42.5381 37.3535 39.9924 37.3535 36.8521V21.6826C37.3535 18.5421 34.7152 15.9963 31.4607 15.9963H31.352C31.3545 15.9027 31.3557 15.8085 31.3557 15.7142V11.8532C31.3557 5.60403 25.7567 0.538147 18.8497 0.538147ZM25.1937 15.9963C25.1986 15.9028 25.2013 15.8089 25.2013 15.7142V11.8532C25.2013 8.67938 22.3576 6.10657 18.8497 6.10657C15.342 6.10657 12.4984 8.67938 12.4984 11.8532V15.7142C12.4984 15.8089 12.5008 15.9028 12.5059 15.9963H25.1937Z" fill="#CCAD85"/>
</svg>
