<svg width="31" height="24" viewBox="0 0 31 24" fill="none" xmlns="http://www.w3.org/2000/svg">
<rect width="30" height="24" transform="translate(0.0478516 6.10352e-05)" fill="white"/>
<path d="M12.2618 15.7617C12.2618 16.8432 11.6984 18.613 10.3648 18.613C9.03125 18.613 8.46784 16.8432 8.46784 15.7617C8.46784 14.6801 9.03125 12.9104 10.3648 12.9104C11.6984 12.9104 12.2618 14.6801 12.2618 15.7617ZM27.4529 13.1484C27.4529 14.7992 27.2875 16.5483 26.5484 18.0645C24.5894 22.0284 19.2035 21.9352 15.3476 21.9352C11.4296 21.9352 5.7232 22.0749 3.68668 18.0645C2.93203 16.5638 2.64258 14.7992 2.64258 13.1484C2.64258 10.9802 3.36104 8.93093 4.78764 7.26982C4.51886 6.4522 4.38964 5.59318 4.38964 4.74452C4.38964 3.63193 4.64291 3.07305 5.14429 2.06396C7.48577 2.06396 8.98473 2.5297 10.768 3.9269C12.2669 3.56983 13.8072 3.40941 15.3527 3.40941C16.7483 3.40941 18.1542 3.55948 19.5085 3.8855C21.2659 2.50382 22.7648 2.06396 25.0805 2.06396C25.587 3.07305 25.8351 3.63193 25.8351 4.74452C25.8351 5.59318 25.7007 6.43668 25.4371 7.23877C26.8585 8.91541 27.4529 10.9802 27.4529 13.1484ZM24.1294 15.7617C24.1294 13.4899 22.7493 11.4873 20.3303 11.4873C19.3534 11.4873 18.4178 11.6632 17.4358 11.7978C16.6656 11.9168 15.8954 11.9634 15.1046 11.9634C14.319 11.9634 13.5488 11.9168 12.7735 11.7978C11.8069 11.6632 10.861 11.4873 9.87893 11.4873C7.45992 11.4873 6.07985 13.4899 6.07985 15.7617C6.07985 20.3052 10.2356 21.0038 13.8538 21.0038H16.3451C19.9788 21.0038 24.1294 20.3103 24.1294 15.7617ZM19.8599 12.9104C18.5264 12.9104 17.963 14.6801 17.963 15.7617C17.963 16.8432 18.5264 18.613 19.8599 18.613C21.1935 18.613 21.7569 16.8432 21.7569 15.7617C21.7569 14.6801 21.1935 12.9104 19.8599 12.9104Z" fill="#BABABA"/>
</svg>
