<svg width="31" height="24" viewBox="0 0 31 24" fill="none" xmlns="http://www.w3.org/2000/svg">
<path d="M8.75637 13.4866H16.6929V21.1815H13.4216L13.0313 17.8917C12.6596 19.0689 11.9967 19.9424 11.0425 20.5124C10.0884 21.0824 8.92365 21.3674 7.54823 21.3674C6.29672 21.3674 5.18152 21.0886 4.20262 20.531C3.23611 19.9734 2.47405 19.1742 1.91645 18.1333C1.37124 17.0925 1.09863 15.8781 1.09863 14.4903C1.09863 12.2723 1.76156 10.519 3.08741 9.23028C4.41327 7.9416 6.47639 7.29726 9.2768 7.29726C10.8753 7.29726 12.2816 7.55748 13.496 8.07791C14.7227 8.59833 15.7636 9.40376 16.6186 10.4942C16.061 10.7792 14.9705 11.3492 13.3473 12.2042L12.8826 12.4644C12.3994 11.9811 11.8356 11.6218 11.1912 11.3863C10.5469 11.1385 9.86537 11.0146 9.14669 11.0146C7.95714 11.0146 7.07117 11.3306 6.48879 11.9625C5.9064 12.5821 5.61521 13.3503 5.61521 14.2673C5.61521 15.2586 5.92499 16.0578 6.54455 16.665C7.17649 17.2721 8.13681 17.5757 9.42549 17.5757C9.98309 17.5757 10.5221 17.4952 11.0425 17.3341C11.5754 17.173 12.0214 16.8942 12.3808 16.4977H8.75637V13.4866Z" fill="#BABABA"/>
<path d="M28.9973 6.53615C27.0519 6.47419 25.1623 6.43702 23.3284 6.42463V16.1269H18.6817V6.42463C16.8354 6.43702 14.9519 6.47419 13.0313 6.53615V2.63294H28.9973V6.53615Z" fill="#BABABA"/>
</svg>
