<svg width="193" height="21" viewBox="0 0 193 21" fill="none" xmlns="http://www.w3.org/2000/svg">
<path d="M9.47699 7.86358H18.3846V16.5H14.7131L14.275 12.8076C13.8578 14.1288 13.1137 15.1093 12.0429 15.749C10.972 16.3887 9.66474 16.7086 8.12103 16.7086C6.71639 16.7086 5.46474 16.3957 4.36606 15.7699C3.2813 15.144 2.426 14.247 1.80017 13.0788C1.18825 11.9106 0.882289 10.5477 0.882289 8.99007C0.882289 6.50066 1.62633 4.53278 3.11441 3.08642C4.60249 1.64007 6.91805 0.916888 10.0611 0.916888C11.8551 0.916888 13.4336 1.20894 14.7965 1.79305C16.1733 2.37715 17.3416 3.28113 18.3012 4.50497C17.6753 4.82483 16.4515 5.46457 14.6296 6.42417L14.1081 6.71623C13.5657 6.17384 12.933 5.77053 12.2098 5.50629C11.4866 5.22815 10.7217 5.08907 9.91507 5.08907C8.57997 5.08907 7.5856 5.44371 6.93196 6.15298C6.27832 6.84834 5.95149 7.7106 5.95149 8.73974C5.95149 9.85232 6.29918 10.7493 6.99454 11.4308C7.70381 12.1123 8.78163 12.453 10.228 12.453C10.8538 12.453 11.4588 12.3626 12.0429 12.1818C12.6409 12.001 13.1416 11.6881 13.5449 11.243H9.47699V7.86358ZM24.4749 8.19735C25.059 6.09735 26.5123 5.04735 28.8348 5.04735C29.2381 5.04735 29.6275 5.07517 30.003 5.1308L29.3354 9.80364C28.3341 9.42815 27.5136 9.2404 26.8739 9.2404C26.0811 9.2404 25.497 9.47682 25.1215 9.94967C24.746 10.4225 24.5583 11.0553 24.5583 11.848V11.8272L24.5374 13.204C24.5374 14.1914 24.5653 15.2901 24.6209 16.5H19.6351C19.7464 14.4974 19.802 12.606 19.802 10.8258C19.802 9.0457 19.7464 7.1404 19.6351 5.10993C20.553 5.15166 21.2553 5.17252 21.7421 5.17252C22.2566 5.17252 22.959 5.15166 23.849 5.10993L24.4749 8.19735ZM43.3869 13.0371C43.3869 13.5099 43.4425 13.8437 43.5538 14.0384C43.6651 14.2331 43.8876 14.3722 44.2214 14.4556L44.1379 16.4166C43.6929 16.4861 43.3035 16.5348 42.9697 16.5626C42.6498 16.5904 42.2187 16.6043 41.6763 16.6043C40.4803 16.6043 39.6876 16.3401 39.2982 15.8116C38.9088 15.2692 38.7141 14.5808 38.7141 13.7464V13.2248C38.3108 14.3652 37.7197 15.2136 36.9409 15.7699C36.176 16.3262 35.1955 16.6043 33.9995 16.6043C32.6088 16.6043 31.5588 16.3262 30.8495 15.7699C30.1541 15.2136 29.8065 14.3861 29.8065 13.2874C29.8065 12.3834 30.1055 11.6742 30.7035 11.1596C31.3015 10.645 32.2263 10.2904 33.478 10.0957C32.421 9.3447 31.3641 8.69106 30.3071 8.13477C31.1416 7.07781 32.0942 6.27815 33.1651 5.73576C34.2359 5.17947 35.5363 4.90132 37.0661 4.90132C39.2078 4.90132 40.7932 5.36722 41.8223 6.29901C42.8654 7.21689 43.3869 8.63543 43.3869 10.5546V13.0371ZM37.5041 8.57285C36.7949 8.57285 36.169 8.69106 35.6267 8.92748C35.0843 9.16391 34.5975 9.51854 34.1664 9.99139C35.0008 9.89404 36.0439 9.84536 37.2955 9.84536C37.8101 9.84536 38.1717 9.78278 38.3803 9.65762C38.5889 9.53245 38.6932 9.37252 38.6932 9.17781C38.6932 9.01093 38.5889 8.87185 38.3803 8.7606C38.1717 8.63543 37.8796 8.57285 37.5041 8.57285ZM35.3137 13.204C36.0925 13.204 36.7949 13.0579 37.4207 12.7659C38.0465 12.4599 38.4776 12.0636 38.7141 11.5768V11.0344C38.3803 11.2013 38.0117 11.3334 37.6084 11.4308C37.2051 11.5142 36.7184 11.5977 36.1482 11.6811L35.3972 11.8063C34.6184 11.9593 34.229 12.2235 34.229 12.599C34.229 13.0023 34.5906 13.204 35.3137 13.204ZM61.2274 16.5C61.3387 14.6781 61.3943 12.7937 61.3943 10.8467C61.3943 10.2209 61.2344 9.73411 60.9145 9.38642C60.6085 9.02483 60.1983 8.84404 59.6837 8.84404C59.2108 8.84404 58.8006 9.05265 58.4529 9.46987C58.1191 9.88709 57.9522 10.4921 57.9522 11.2848V11.2639C57.9522 13.7255 57.987 15.4709 58.0565 16.5H53.3628C53.4463 14.4556 53.488 12.5712 53.488 10.8467C53.488 10.2348 53.335 9.74801 53.0291 9.38642C52.737 9.02483 52.3615 8.84404 51.9026 8.84404C51.4158 8.84404 51.0056 9.05265 50.6718 9.46987C50.3519 9.87318 50.1642 10.4295 50.1085 11.1387C50.0807 12.1957 50.0668 12.9467 50.0668 13.3917C50.0668 14.3374 50.0946 15.3735 50.1503 16.5H45.1645C45.2757 14.4974 45.3314 12.606 45.3314 10.8258C45.3314 9.0457 45.2757 7.1404 45.1645 5.10993C46.0824 5.15166 46.7847 5.17252 47.2714 5.17252C47.786 5.17252 48.4883 5.15166 49.3784 5.10993L50.0042 8.19735C50.3241 7.07086 50.8317 6.24338 51.5271 5.7149C52.2224 5.17252 53.0221 4.90132 53.9261 4.90132C55.0108 4.90132 55.894 5.20033 56.5754 5.79834C57.2708 6.39636 57.7019 7.17517 57.8688 8.13477C58.1887 7.14735 58.7241 6.36159 59.4751 5.77748C60.2261 5.19338 61.0814 4.90132 62.041 4.90132C63.2926 4.90132 64.2731 5.3255 64.9824 6.17384C65.6916 7.00828 66.0463 8.15563 66.0463 9.61589V13.0788C66.0463 14.6503 66.0602 15.7907 66.088 16.5H61.2274ZM83.7083 16.5C83.8196 14.6781 83.8752 12.7937 83.8752 10.8467C83.8752 10.2209 83.7153 9.73411 83.3954 9.38642C83.0894 9.02483 82.6792 8.84404 82.1646 8.84404C81.6918 8.84404 81.2815 9.05265 80.9338 9.46987C80.6 9.88709 80.4331 10.4921 80.4331 11.2848V11.2639C80.4331 13.7255 80.4679 15.4709 80.5375 16.5H75.8437C75.9272 14.4556 75.9689 12.5712 75.9689 10.8467C75.9689 10.2348 75.8159 9.74801 75.51 9.38642C75.2179 9.02483 74.8424 8.84404 74.3835 8.84404C73.8967 8.84404 73.4865 9.05265 73.1527 9.46987C72.8328 9.87318 72.6451 10.4295 72.5894 11.1387C72.5616 12.1957 72.5477 12.9467 72.5477 13.3917C72.5477 14.3374 72.5755 15.3735 72.6312 16.5H67.6454C67.7567 14.4974 67.8123 12.606 67.8123 10.8258C67.8123 9.0457 67.7567 7.1404 67.6454 5.10993C68.5633 5.15166 69.2656 5.17252 69.7524 5.17252C70.2669 5.17252 70.9692 5.15166 71.8593 5.10993L72.4851 8.19735C72.805 7.07086 73.3126 6.24338 74.008 5.7149C74.7033 5.17252 75.503 4.90132 76.407 4.90132C77.4918 4.90132 78.3749 5.20033 79.0563 5.79834C79.7517 6.39636 80.1828 7.17517 80.3497 8.13477C80.6696 7.14735 81.205 6.36159 81.956 5.77748C82.707 5.19338 83.5623 4.90132 84.5219 4.90132C85.7735 4.90132 86.754 5.3255 87.4633 6.17384C88.1726 7.00828 88.5272 8.15563 88.5272 9.61589V13.0788C88.5272 14.6503 88.5411 15.7907 88.5689 16.5H83.7083ZM103.394 13.0371C103.394 13.5099 103.449 13.8437 103.561 14.0384C103.672 14.2331 103.895 14.3722 104.228 14.4556L104.145 16.4166C103.7 16.4861 103.31 16.5348 102.977 16.5626C102.657 16.5904 102.226 16.6043 101.683 16.6043C100.487 16.6043 99.6945 16.3401 99.3051 15.8116C98.9157 15.2692 98.721 14.5808 98.721 13.7464V13.2248C98.3177 14.3652 97.7266 15.2136 96.9478 15.7699C96.1829 16.3262 95.2025 16.6043 94.0064 16.6043C92.6157 16.6043 91.5657 16.3262 90.8564 15.7699C90.1611 15.2136 89.8134 14.3861 89.8134 13.2874C89.8134 12.3834 90.1124 11.6742 90.7104 11.1596C91.3084 10.645 92.2333 10.2904 93.4849 10.0957C92.428 9.3447 91.371 8.69106 90.3141 8.13477C91.1485 7.07781 92.1011 6.27815 93.172 5.73576C94.2429 5.17947 95.5432 4.90132 97.073 4.90132C99.2147 4.90132 100.8 5.36722 101.829 6.29901C102.872 7.21689 103.394 8.63543 103.394 10.5546V13.0371ZM97.5111 8.57285C96.8018 8.57285 96.176 8.69106 95.6336 8.92748C95.0912 9.16391 94.6044 9.51854 94.1733 9.99139C95.0078 9.89404 96.0508 9.84536 97.3025 9.84536C97.817 9.84536 98.1786 9.78278 98.3872 9.65762C98.5958 9.53245 98.7001 9.37252 98.7001 9.17781C98.7001 9.01093 98.5958 8.87185 98.3872 8.7606C98.1786 8.63543 97.8866 8.57285 97.5111 8.57285ZM95.3207 13.204C96.0995 13.204 96.8018 13.0579 97.4276 12.7659C98.0535 12.4599 98.4846 12.0636 98.721 11.5768V11.0344C98.3872 11.2013 98.0187 11.3334 97.6154 11.4308C97.2121 11.5142 96.7253 11.5977 96.1551 11.6811L95.4041 11.8063C94.6253 11.9593 94.2359 12.2235 94.2359 12.599C94.2359 13.0023 94.5975 13.204 95.3207 13.204ZM109.907 8.19735C110.491 6.09735 111.944 5.04735 114.267 5.04735C114.67 5.04735 115.06 5.07517 115.435 5.1308L114.767 9.80364C113.766 9.42815 112.946 9.2404 112.306 9.2404C111.513 9.2404 110.929 9.47682 110.554 9.94967C110.178 10.4225 109.99 11.0553 109.99 11.848V11.8272L109.969 13.204C109.969 14.1914 109.997 15.2901 110.053 16.5H105.067C105.178 14.4974 105.234 12.606 105.234 10.8258C105.234 9.0457 105.178 7.1404 105.067 5.10993C105.985 5.15166 106.687 5.17252 107.174 5.17252C107.689 5.17252 108.391 5.15166 109.281 5.10993L109.907 8.19735ZM139.036 8.80232C139.036 13.1414 136.929 15.6934 132.715 16.4583C133.48 16.8199 134.363 17.1675 135.364 17.5013C134.433 18.294 133.209 19.351 131.693 20.6722C130.135 19.4762 128.807 18.1202 127.708 16.6043C125.219 16.3123 123.383 15.4917 122.201 14.1427C121.033 12.7937 120.449 11.0136 120.449 8.80232C120.449 6.32682 121.193 4.39371 122.681 3.00298C124.183 1.61225 126.533 0.916888 129.732 0.916888C132.944 0.916888 135.295 1.61225 136.783 3.00298C138.285 4.39371 139.036 6.32682 139.036 8.80232ZM129.732 12.453C131.276 12.453 132.388 12.1609 133.07 11.5768C133.751 10.9788 134.092 10.054 134.092 8.80232C134.092 7.57848 133.751 6.66755 133.07 6.06954C132.388 5.47152 131.276 5.17252 129.732 5.17252C128.202 5.17252 127.096 5.47152 126.415 6.06954C125.734 6.66755 125.393 7.57848 125.393 8.80232C125.393 10.0401 125.734 10.9579 126.415 11.556C127.096 12.154 128.202 12.453 129.732 12.453ZM153.111 5.10993C153.013 6.86225 152.965 8.75364 152.965 10.7841C152.965 12.8285 153.013 14.7338 153.111 16.5C152.221 16.4583 151.518 16.4374 151.004 16.4374C150.517 16.4374 149.815 16.4583 148.897 16.5L148.292 13.4334C147.972 14.546 147.471 15.3735 146.79 15.9159C146.109 16.4444 145.316 16.7086 144.412 16.7086C143.577 16.7086 142.854 16.5278 142.242 16.1662C141.63 15.7907 141.164 15.2901 140.845 14.6642C140.539 14.0384 140.386 13.3361 140.386 12.5573V9.55331C140.386 7.70364 140.351 6.22252 140.281 5.10993H144.975C144.892 7.15431 144.85 9.17781 144.85 11.1805C144.85 11.7924 144.996 12.2791 145.288 12.6407C145.594 13.0023 145.976 13.1831 146.435 13.1831C146.866 13.1831 147.242 12.9954 147.562 12.6199C147.896 12.2305 148.097 11.702 148.167 11.0344V10.5546C148.195 9.46987 148.209 8.71887 148.209 8.30166C148.209 7.34205 148.181 6.27815 148.125 5.10993H153.111ZM165.404 11.2848H158.604C158.715 11.8967 158.986 12.3974 159.417 12.7868C159.862 13.1623 160.488 13.35 161.295 13.35C161.879 13.35 162.428 13.2387 162.943 13.0162C163.457 12.7798 163.868 12.453 164.174 12.0358C165.105 12.4947 166.343 12.9884 167.887 13.5169C167.456 14.4904 166.67 15.2692 165.53 15.8533C164.403 16.4235 162.929 16.7086 161.107 16.7086C158.743 16.7086 156.991 16.1662 155.85 15.0815C154.724 13.9828 154.16 12.5434 154.16 10.7632C154.16 9.02483 154.724 7.61325 155.85 6.52848C156.977 5.44371 158.729 4.90132 161.107 4.90132C162.526 4.90132 163.756 5.13775 164.799 5.6106C165.843 6.08344 166.642 6.74404 167.198 7.59238C167.755 8.42682 168.033 9.38642 168.033 10.4712C168.033 10.8328 168.019 11.104 167.991 11.2848H165.404ZM161.399 8.05132C160.704 8.05132 160.134 8.18344 159.689 8.44768C159.244 8.71192 158.931 9.07351 158.75 9.53245H163.673C163.506 9.08742 163.235 8.73278 162.859 8.46854C162.484 8.1904 161.997 8.05132 161.399 8.05132ZM175.806 16.7086C174.638 16.7086 173.449 16.5487 172.239 16.2288C171.043 15.895 169.916 15.3944 168.859 14.7268L171.05 11.7437C171.689 12.2026 172.461 12.5642 173.365 12.8285C174.269 13.0788 175.048 13.204 175.702 13.204C176.327 13.204 176.807 13.1205 177.141 12.9536C177.489 12.7728 177.662 12.5434 177.662 12.2652C177.662 12.0427 177.579 11.8689 177.412 11.7437C177.245 11.6185 177.016 11.556 176.724 11.556C176.543 11.556 176.334 11.5629 176.098 11.5768C175.875 11.5907 175.695 11.6046 175.556 11.6185C174.832 11.702 174.088 11.7437 173.323 11.7437C172.086 11.7437 171.077 11.5142 170.299 11.0553C169.534 10.5825 169.151 9.81755 169.151 8.7606C169.151 7.53676 169.728 6.59106 170.883 5.92351C172.037 5.24205 173.734 4.90132 175.973 4.90132C177.071 4.90132 178.177 5.06126 179.29 5.38113C180.416 5.68709 181.411 6.15298 182.273 6.77881L179.874 9.19868C179.081 8.78146 178.337 8.4894 177.642 8.32252C176.96 8.14172 176.272 8.05132 175.576 8.05132C175.09 8.05132 174.672 8.14868 174.325 8.34338C173.977 8.53808 173.803 8.7606 173.803 9.01093C173.803 9.20563 173.873 9.35861 174.012 9.46987C174.165 9.58113 174.36 9.63675 174.596 9.63675C174.832 9.63675 175.159 9.61589 175.576 9.57417C176.592 9.50464 177.35 9.46987 177.85 9.46987C179.297 9.46987 180.416 9.71325 181.209 10.2C182.002 10.6868 182.398 11.4308 182.398 12.4321C182.398 13.9341 181.814 15.0258 180.646 15.7073C179.477 16.3748 177.864 16.7086 175.806 16.7086ZM192.483 8.84404C191.204 8.7606 190.036 8.69801 188.979 8.65629L188.958 10.8675C188.958 11.6185 189.118 12.2096 189.438 12.6407C189.771 13.0579 190.355 13.2666 191.19 13.2666C191.51 13.2666 191.816 13.2387 192.108 13.1831C192.052 13.6977 192.024 14.2192 192.024 14.7477C192.024 14.998 192.038 15.5682 192.066 16.4583C191.454 16.5695 190.94 16.6391 190.522 16.6669C190.105 16.6947 189.563 16.7086 188.895 16.7086C187.268 16.7086 186.114 16.3192 185.432 15.5404C184.765 14.7477 184.431 13.649 184.431 12.2444L184.452 8.71887C183.798 8.74669 183.117 8.78841 182.407 8.84404V5.15166C183.131 5.15166 183.742 4.92219 184.243 4.46325C184.744 4.00431 185.043 3.45497 185.14 2.81523H190.814C190.105 3.78874 189.319 4.56755 188.457 5.15166H192.483V8.84404Z" fill="black"/>
</svg>
