<svg width="31" height="24" viewBox="0 0 31 24" fill="none" xmlns="http://www.w3.org/2000/svg">
<path fill-rule="evenodd" clip-rule="evenodd" d="M24.7755 3.68472C25.8738 3.9985 26.6582 4.78296 26.972 5.88119C27.5996 7.92076 27.5995 11.9999 27.5995 11.9999C27.5995 11.9999 27.5996 16.0791 27.1289 18.1186C26.8151 19.2169 26.0306 20.0013 24.9324 20.3151C22.8928 20.7858 15.0483 20.7858 15.0483 20.7858C15.0483 20.7858 7.04689 20.7858 5.1642 20.3151C4.06597 20.0013 3.28153 19.2169 2.96775 18.1186C2.49707 16.0791 2.49707 11.9999 2.49707 11.9999C2.49707 11.9999 2.49707 7.92076 2.81085 5.88119C3.12463 4.78296 3.90909 3.9985 5.00733 3.68472C7.0469 3.21405 14.8914 3.21405 14.8914 3.21405C14.8914 3.21405 22.8928 3.21405 24.7755 3.68472ZM12.538 8.92382C12.538 8.61669 12.8698 8.42414 13.1365 8.57652L18.5197 11.6526C18.7884 11.8062 18.7884 12.1937 18.5197 12.3472L13.1365 15.4233C12.8698 15.5757 12.538 15.3831 12.538 15.076V8.92382Z" fill="#BABABA"/>
</svg>
